<svg height="512pt" viewBox="0 -49 512 511" width="512pt" xmlns="http://www.w3.org/2000/svg">
  <path d="M512 20.5c0-11.046875-8.953125-20-20-20H20C8.953125.5 0 9.453125 0 20.5v372c0 11.046875 8.953125 20 20 20 .132812 0 471.875-.144531 472-.144531 11.046875 0 20-8.957031 20-20V20.5zm-276 352H40v-332h196zm236-.144531H276V226.5h196zm0-186H276V40.5h196zM69 113.398438c0-11.046876 8.953125-20 20-20h98c11.046875 0 20 8.953124 20 20 0 11.046874-8.953125 20-20 20H89c-11.046875 0-20-8.953126-20-20zM69 206.5c0-11.046875 8.953125-20 20-20h98c11.046875 0 20 8.953125 20 20s-8.953125 20-20 20H89c-11.046875 0-20-8.953125-20-20zm0 93.101562c0-11.046874 8.953125-20 20-20h98c11.046875 0 20 8.953126 20 20 0 11.046876-8.953125 20-20 20H89c-11.046875 0-20-8.953124-20-20zm0 0"/>
</svg>
